<svg xmlns="http://www.w3.org/2000/svg" viewBox="0 0 100 100"><path fill="#a0d2a1" d="M65.93,23.479c-3.424-1.457-6.663-3.31-9.55-5.648c-0.482-0.83-0.924-1.686-1.293-2.584 l-0.034-0.082l-1.655,1.635l-1.699-1.679L50,16.799l-1.699-1.679l-1.699,1.679l-1.655-1.635l-0.323,0.787 c-0.242,0.588-0.516,1.159-0.807,1.719c-2.936,2.414-6.244,4.32-9.746,5.81c-7.799,3.317-12.943,8.999-12.943,15.454 c0,10.234,12.927,18.531,28.873,18.531s28.873-8.297,28.873-18.531C78.873,32.478,73.729,26.796,65.93,23.479z"/><path fill="#1f212b" d="M50,58.463c-16.472,0-29.873-8.761-29.873-19.531c0-6.644,5.066-12.765,13.551-16.374 c3.528-1.5,6.67-3.361,9.344-5.532c0.266-0.522,0.488-1,0.676-1.458l0.323-0.786c0.126-0.309,0.399-0.534,0.726-0.6 c0.323-0.066,0.665,0.034,0.902,0.269l0.952,0.941l0.996-0.985c0.39-0.385,1.017-0.385,1.406,0L50,15.393l0.996-0.985 c0.39-0.385,1.017-0.385,1.406,0l0.996,0.985l0.952-0.941c0.238-0.234,0.578-0.333,0.904-0.268 c0.327,0.067,0.599,0.292,0.725,0.602c0.332,0.807,0.708,1.567,1.174,2.384c2.634,2.109,5.718,3.922,9.168,5.389l0,0 c8.485,3.609,13.551,9.73,13.551,16.374C79.873,49.702,66.472,58.463,50,58.463z M45.296,16.915 c-0.175,0.387-0.371,0.789-0.593,1.216c-0.062,0.12-0.148,0.226-0.252,0.312c-2.856,2.348-6.217,4.353-9.99,5.958 c-7.723,3.285-12.334,8.717-12.334,14.533c0,9.667,12.503,17.531,27.873,17.531s27.873-7.864,27.873-17.531 c0-5.816-4.611-11.249-12.334-14.533c-3.685-1.567-6.978-3.516-9.788-5.792c-0.095-0.077-0.175-0.17-0.236-0.276 c-0.29-0.5-0.548-0.979-0.781-1.447l-0.632,0.625c-0.39,0.385-1.017,0.385-1.406,0l-0.996-0.985l-0.996,0.985 c-0.39,0.385-1.017,0.385-1.406,0l-0.996-0.985l-0.996,0.985c-0.39,0.385-1.017,0.385-1.406,0L45.296,16.915z"/><path fill="#1f212b" d="M50.389,48.866c-10.366,0-18.799-6.198-18.799-13.816c0-3.71,1.968-7.19,5.542-9.799 c2.86-2.088,5.262-4.833,6.763-7.731c0.127-0.245,0.429-0.34,0.674-0.214c0.245,0.127,0.341,0.429,0.214,0.674 c-1.571,3.032-4.079,5.901-7.061,8.079c-3.31,2.416-5.132,5.609-5.132,8.992c0,7.067,7.985,12.816,17.799,12.816 s17.799-5.749,17.799-12.816c0-3.537-1.967-6.833-5.539-9.28c-2.899-1.986-5.502-4.694-7.142-7.428 c-0.142-0.237-0.065-0.544,0.171-0.686c0.237-0.143,0.544-0.065,0.686,0.171c1.568,2.615,4.065,5.209,6.85,7.117 c3.796,2.601,5.973,6.284,5.973,10.105C69.188,42.668,60.755,48.866,50.389,48.866z"/><path fill="#c4e7ed" d="M73.862,60.331h-0.007c0.035-0.251,0.071-0.502,0.091-0.757c0.043-0.535,0.064-1.076,0.064-1.621 c0-3.649-0.978-7.087-2.699-10.116l1.583-8.566c0.375-2.029-1.492-3.765-3.523-3.277l-8.965,2.156 c-3.148-1.387-6.678-2.165-10.406-2.165s-7.258,0.778-10.406,2.165l-8.965-2.156c-2.031-0.488-3.898,1.248-3.523,3.277l1.583,8.566 c-1.721,3.028-2.699,6.466-2.699,10.116c0,0.772,0.044,1.535,0.129,2.287l-0.084,0c-0.75,2.792-1.163,5.814-1.163,8.974 c0,5.963,1.461,11.445,3.906,15.786H41.44c0.014-0.403,0.023-0.807,0.023-1.214c0-0.859-0.036-1.706-0.096-2.543 C43.823,82.349,46.794,83,49.998,83c3.147,0,6.071-0.626,8.5-1.696c-0.056,0.817-0.09,1.644-0.09,2.482 c0,0.407,0.01,0.812,0.023,1.214h12.662C73.539,80.659,75,75.178,75,69.214C75,66.089,74.596,63.098,73.862,60.331z"/><path fill="#1f212b" d="M50,70.115c-0.072,0-0.146-0.016-0.216-0.049l-0.361-0.173c-3.146-1.51-6.442-2.453-9.798-2.803 c-2.526-0.263-5.162-0.377-7.83-0.351c-0.27-0.033-0.503-0.218-0.506-0.494c-0.003-0.276,0.218-0.503,0.494-0.506 c2.711-0.026,5.381,0.089,7.945,0.357c3.47,0.362,6.877,1.336,10.127,2.896l0.361,0.173c0.249,0.12,0.354,0.418,0.234,0.667 C50.365,70.01,50.186,70.115,50,70.115z"/><path fill="#1f212b" d="M50,70.115c-0.187,0-0.365-0.104-0.451-0.284c-0.12-0.249-0.015-0.547,0.234-0.667l0.361-0.173 c3.25-1.56,6.657-2.534,10.127-2.896c2.565-0.267,5.242-0.385,7.945-0.357c0.276,0.003,0.497,0.229,0.494,0.506 c-0.003,0.274-0.227,0.494-0.5,0.494c-0.002,0-0.004,0-0.006,0c-2.667-0.028-5.304,0.088-7.83,0.351 c-3.355,0.35-6.652,1.293-9.798,2.803l-0.361,0.173C50.146,70.099,50.073,70.115,50,70.115z"/><path fill="#1f212b" d="M47.507,65.01c-0.276,0-0.5-0.224-0.5-0.5s0.224-0.533,0.5-0.533s0.5,0.19,0.5,0.467v0.066 C48.007,64.786,47.783,65.01,47.507,65.01z"/><path fill="#1f212b" d="M52.493,65.01c-0.276,0-0.5-0.224-0.5-0.5s0.224-0.533,0.5-0.533s0.5,0.19,0.5,0.467v0.066 C52.993,64.786,52.77,65.01,52.493,65.01z"/><path fill="#78ccd3" d="M55.098,42.585c-2.255,0.785-4.94,2.313-5.824,4.377c0.494,1.419,0.949,2.079,2.128,3.01 c1.971-1.09,4.539-3.669,5.302-6.047C56.217,43.241,56.034,43.061,55.098,42.585z"/><path fill="#1f212b" d="M51.402,50.473c-0.11,0-0.22-0.037-0.31-0.107c-1.244-0.983-1.757-1.709-2.29-3.238 c-0.041-0.118-0.037-0.247,0.013-0.361c1.178-2.751,4.981-4.257,6.12-4.653c0.128-0.045,0.269-0.035,0.391,0.026 c1.02,0.519,1.264,0.762,1.787,1.496c0.091,0.128,0.117,0.292,0.069,0.443c-0.798,2.489-3.442,5.174-5.537,6.332 C51.568,50.453,51.485,50.473,51.402,50.473z M49.813,46.987c0.403,1.106,0.785,1.668,1.636,2.38 c1.771-1.082,3.936-3.311,4.698-5.359c-0.293-0.398-0.47-0.556-1.085-0.878C53.028,43.871,50.672,45.241,49.813,46.987z"/><path fill="#78ccd3" d="M44.554,49.352c0.69-0.251,1.442-0.218,2.235,0c0.23,0.844,0.161,1.559-0.122,2.18 c-0.577,0.123-1.433-0.107-2.344-0.408C44.248,50.451,44.283,49.838,44.554,49.352z"/><path fill="#1f212b" d="M46.31,52.066c-0.589,0-1.297-0.189-2.144-0.469c-0.186-0.061-0.318-0.225-0.34-0.419 c-0.098-0.879-0.005-1.538,0.292-2.07c0.059-0.105,0.153-0.186,0.266-0.227c0.75-0.271,1.58-0.275,2.538-0.012 c0.17,0.047,0.303,0.18,0.35,0.351c0.248,0.911,0.197,1.758-0.149,2.519c-0.066,0.144-0.196,0.249-0.351,0.281 C46.626,52.052,46.473,52.066,46.31,52.066z M44.793,50.75c0.53,0.166,1.104,0.316,1.519,0.316 c0.129-0.401,0.149-0.831,0.059-1.302c-0.547-0.118-1.028-0.119-1.458-0.001C44.813,50.021,44.774,50.347,44.793,50.75z"/><path fill="#eeecd9" d="M32.888,53.302c-0.904,1.949-1.147,4.227-1.009,6.697c0.056,0.992,0.863,1.777,1.855,1.831 c2.434,0.132,5.031,0.025,7.74-0.25c0.925-0.094,1.39-1.183,0.807-1.907c-2.478-3.077-5.204-5.475-8.313-6.815 C33.554,52.679,33.079,52.891,32.888,53.302z"/><path fill="#df5f80" d="M35.534,53.638c-0.723,1.051-1.163,2.44-1.163,3.963c0,1.684,0.538,3.204,1.402,4.285l6.767-0.695 l-0.197-1.436L35.534,53.638z"/><path fill="#78ccd3" d="M54.5,52.575c-1.155,0.094-2.011,0.624-2.758,1.313c0.194,0.764,0.656,1.23,1.266,1.533 c0.953-0.177,1.736-0.492,2.13-1.121C55.35,53.644,55.164,53.064,54.5,52.575z"/><path fill="#1f212b" d="M53.008,55.921c-0.077,0-0.153-0.018-0.223-0.052c-0.803-0.399-1.317-1.024-1.528-1.858 c-0.045-0.178,0.011-0.366,0.146-0.49c0.61-0.563,1.591-1.324,3.056-1.444c0.12-0.009,0.239,0.024,0.337,0.096 c1.039,0.764,1.018,1.663,0.817,2.282c-0.013,0.039-0.03,0.077-0.052,0.112c-0.565,0.902-1.676,1.201-2.462,1.347 C53.069,55.918,53.038,55.921,53.008,55.921z M52.319,54.046c0.15,0.361,0.4,0.637,0.768,0.851 c0.817-0.172,1.329-0.432,1.594-0.811c0.082-0.289,0.083-0.625-0.333-0.991C53.624,53.19,52.982,53.49,52.319,54.046z"/><path fill="#1f212b" d="M35.893,62.387c-0.751,0-1.478-0.02-2.185-0.058c-1.257-0.068-2.258-1.058-2.327-2.302 c-0.157-2.798,0.188-5.066,1.054-6.935c0.313-0.673,1.075-0.976,1.732-0.692c2.987,1.288,5.77,3.564,8.504,6.96 c0.389,0.482,0.477,1.114,0.237,1.689c-0.239,0.572-0.769,0.966-1.383,1.028C39.486,62.284,37.625,62.387,35.893,62.387z M33.66,53.295c-0.127,0-0.255,0.083-0.318,0.217l0,0c-0.796,1.716-1.111,3.828-0.963,6.458c0.041,0.735,0.636,1.319,1.383,1.36 c2.286,0.123,4.791,0.043,7.663-0.248c0.252-0.025,0.462-0.182,0.561-0.419c0.097-0.231,0.062-0.484-0.093-0.677 c-2.63-3.266-5.287-5.447-8.122-6.669C33.735,53.302,33.698,53.295,33.66,53.295z M32.889,53.302h0.01H32.889z"/><path fill="#1f212b" d="M35.773,62.386c-0.147,0-0.292-0.064-0.391-0.188c-0.975-1.219-1.512-2.852-1.512-4.597 c0-1.565,0.444-3.073,1.251-4.246c0.157-0.227,0.468-0.285,0.695-0.129c0.228,0.157,0.285,0.468,0.129,0.695 c-0.693,1.008-1.075,2.315-1.075,3.68c0,1.519,0.459,2.93,1.293,3.973c0.172,0.215,0.137,0.53-0.079,0.703 C35.993,62.351,35.883,62.386,35.773,62.386z"/><path fill="#1f212b" d="M38.581,59.489c-0.276,0-0.5-0.224-0.5-0.5v-1.227c0-0.276,0.224-0.5,0.5-0.5s0.5,0.224,0.5,0.5 v1.227C39.081,59.265,38.857,59.489,38.581,59.489z"/><path fill="#1f212b" d="M49.638,36.412c-0.239,0-0.451-0.172-0.492-0.416c-0.436-2.548-0.713-5.21-0.8-7.699 c-0.01-0.276,0.206-0.508,0.482-0.517c0.264-0.011,0.508,0.206,0.517,0.482c0.086,2.444,0.357,5.061,0.786,7.565 c0.047,0.272-0.136,0.531-0.408,0.577C49.694,36.409,49.666,36.412,49.638,36.412z"/><path fill="#1f212b" d="M48.875,24.732c-0.009,0-0.018,0-0.027,0c-0.275-0.015-0.487-0.25-0.473-0.526 c0.016-0.296,0.035-0.59,0.057-0.881c0.021-0.275,0.259-0.484,0.536-0.461c0.275,0.021,0.482,0.26,0.461,0.536 c-0.021,0.284-0.04,0.571-0.055,0.86C49.359,24.525,49.138,24.732,48.875,24.732z"/><path fill="#1f212b" d="M49.125,21.991c-0.022,0-0.044-0.001-0.066-0.004c-0.274-0.037-0.466-0.288-0.43-0.562 c0.321-2.409,0.881-4.444,1.667-6.049c0.122-0.247,0.422-0.35,0.669-0.229c0.248,0.122,0.351,0.421,0.229,0.669 c-0.738,1.508-1.267,3.439-1.574,5.742C49.587,21.809,49.372,21.991,49.125,21.991z"/><path fill="#1f212b" d="M40.847,85.5c-0.006,0-0.012,0-0.018,0c-0.276-0.01-0.492-0.241-0.482-0.517 c0.014-0.397,0.024-0.795,0.024-1.197c0-4-0.703-7.978-2.033-11.505c-0.098-0.258,0.033-0.547,0.292-0.644 c0.258-0.098,0.546,0.033,0.644,0.292c1.392,3.69,2.098,7.679,2.098,11.857c0,0.414-0.01,0.823-0.025,1.232 C41.336,85.288,41.115,85.5,40.847,85.5z"/><path fill="#1f212b" d="M59.009,85.5c-0.268,0-0.49-0.213-0.499-0.483c-0.014-0.409-0.024-0.818-0.024-1.231 c0-4.18,0.706-8.169,2.098-11.858c0.098-0.258,0.384-0.39,0.645-0.291c0.258,0.098,0.389,0.386,0.291,0.645 c-1.33,3.525-2.033,7.503-2.033,11.504c0,0.402,0.01,0.8,0.023,1.197c0.01,0.276-0.207,0.507-0.482,0.517 C59.021,85.5,59.015,85.5,59.009,85.5z"/><path fill="#eeecd9" d="M32.935,85c0-1.933,0.876-3.5,1.957-3.5c1.081,0,1.957,1.567,1.957,3.5"/><path fill="#1f212b" d="M36.849,85.5c-0.276,0-0.5-0.224-0.5-0.5c0-1.768-0.768-3-1.457-3s-1.457,1.232-1.457,3 c0,0.276-0.224,0.5-0.5,0.5s-0.5-0.224-0.5-0.5c0-2.243,1.079-4,2.457-4c1.378,0,2.457,1.757,2.457,4 C37.349,85.276,37.125,85.5,36.849,85.5z"/><path fill="#eeecd9" d="M36.848,85c0-1.933,0.876-3.5,1.957-3.5c1.081,0,1.957,1.567,1.957,3.5"/><path fill="#1f212b" d="M40.762,85.5c-0.276,0-0.5-0.224-0.5-0.5c0-1.768-0.768-3-1.457-3s-1.457,1.232-1.457,3 c0,0.276-0.224,0.5-0.5,0.5s-0.5-0.224-0.5-0.5c0-2.243,1.079-4,2.457-4c1.378,0,2.457,1.757,2.457,4 C41.262,85.276,41.039,85.5,40.762,85.5z"/><g><path fill="#eeecd9" d="M29.021,85c0-1.933,0.876-3.5,1.957-3.5s1.957,1.567,1.957,3.5"/><path fill="#1f212b" d="M32.935,85.5c-0.276,0-0.5-0.224-0.5-0.5c0-1.768-0.768-3-1.457-3s-1.457,1.232-1.457,3 c0,0.276-0.224,0.5-0.5,0.5s-0.5-0.224-0.5-0.5c0-2.243,1.079-4,2.457-4c1.378,0,2.457,1.757,2.457,4 C33.435,85.276,33.211,85.5,32.935,85.5z"/></g><g><path fill="#eeecd9" d="M63.4,85c0-1.933,0.876-3.5,1.957-3.5c1.081,0,1.957,1.567,1.957,3.5"/><path fill="#1f212b" d="M67.313,85.5c-0.276,0-0.5-0.224-0.5-0.5c0-1.768-0.768-3-1.457-3S63.9,83.232,63.9,85 c0,0.276-0.224,0.5-0.5,0.5s-0.5-0.224-0.5-0.5c0-2.243,1.079-4,2.457-4c1.378,0,2.457,1.757,2.457,4 C67.813,85.276,67.59,85.5,67.313,85.5z"/></g><g><path fill="#eeecd9" d="M67.313,85c0-1.933,0.876-3.5,1.957-3.5c1.081,0,1.957,1.567,1.957,3.5"/><path fill="#1f212b" d="M71.227,85.5c-0.276,0-0.5-0.224-0.5-0.5c0-1.768-0.768-3-1.457-3s-1.457,1.232-1.457,3 c0,0.276-0.224,0.5-0.5,0.5s-0.5-0.224-0.5-0.5c0-2.243,1.079-4,2.457-4c1.378,0,2.457,1.757,2.457,4 C71.727,85.276,71.503,85.5,71.227,85.5z"/></g><g><path fill="#eeecd9" d="M59.486,85c0-1.933,0.876-3.5,1.957-3.5S63.4,83.067,63.4,85"/><path fill="#1f212b" d="M63.4,85.5c-0.276,0-0.5-0.224-0.5-0.5c0-1.768-0.768-3-1.457-3s-1.457,1.232-1.457,3 c0,0.276-0.224,0.5-0.5,0.5s-0.5-0.224-0.5-0.5c0-2.243,1.079-4,2.457-4c1.378,0,2.457,1.757,2.457,4 C63.9,85.276,63.676,85.5,63.4,85.5z"/></g><g><path fill="#1f212b" d="M71.094,86H58.432c-0.539,0-0.981-0.427-1-0.966c-0.014-0.414-0.024-0.829-0.024-1.248 c0-0.325,0.005-0.653,0.015-0.988c-4.61,1.593-10.379,1.579-14.976-0.047c0.011,0.353,0.017,0.697,0.017,1.035 c0,0.419-0.01,0.834-0.024,1.248c-0.019,0.539-0.46,0.966-1,0.966H28.778c-0.361,0-0.694-0.195-0.871-0.509 c-2.64-4.687-4.035-10.315-4.035-16.276c0-3.169,0.403-6.276,1.197-9.233c0.004-0.016,0.009-0.031,0.014-0.046 c-0.062-0.658-0.092-1.323-0.092-1.982c0-3.563,0.915-7.111,2.65-10.288l-1.518-8.212c-0.235-1.276,0.188-2.573,1.135-3.471 c0.962-0.912,2.309-1.273,3.606-0.96l8.64,2.078c3.298-1.403,6.828-2.114,10.497-2.114s7.199,0.711,10.497,2.114l8.64-2.078 c1.297-0.31,2.644,0.047,3.606,0.96c0.946,0.897,1.37,2.195,1.135,3.471l-1.518,8.212c1.735,3.177,2.65,6.725,2.65,10.288 c0,0.567-0.022,1.139-0.067,1.7c-0.017,0.202-0.041,0.401-0.068,0.6C75.622,63.128,76,66.142,76,69.214 c0,5.961-1.395,11.589-4.034,16.276C71.789,85.805,71.456,86,71.094,86z M59.409,84h11.093C72.792,79.714,74,74.617,74,69.214 c0-2.923-0.362-5.787-1.075-8.515c-0.063-0.16-0.085-0.335-0.061-0.509c0.033-0.231,0.066-0.462,0.085-0.697 c0.04-0.508,0.061-1.022,0.061-1.541c0-3.385-0.864-6.622-2.568-9.621c-0.116-0.205-0.157-0.444-0.114-0.676l1.583-8.566 c0.114-0.617-0.084-1.22-0.544-1.656c-0.469-0.444-1.126-0.619-1.762-0.467l-8.965,2.156c-0.213,0.051-0.437,0.032-0.637-0.057 c-3.132-1.38-6.498-2.08-10.003-2.08s-6.871,0.7-10.003,2.08c-0.2,0.088-0.423,0.108-0.637,0.057l-8.965-2.156 c-0.634-0.151-1.292,0.023-1.762,0.467c-0.459,0.436-0.658,1.039-0.544,1.656l1.583,8.566c0.043,0.231,0.002,0.471-0.114,0.676 c-1.704,2.999-2.568,6.236-2.568,9.621c0,0.724,0.041,1.456,0.123,2.175c0.03,0.261-0.045,0.522-0.206,0.729 c-0.687,2.681-1.035,5.491-1.035,8.358c0,5.402,1.208,10.5,3.498,14.786h11.093c0-0.071,0.001-0.143,0.001-0.214 c0-0.774-0.03-1.583-0.093-2.473c-0.025-0.351,0.137-0.689,0.426-0.891c0.289-0.202,0.662-0.236,0.983-0.091 C44.202,81.423,47.043,82,49.999,82c2.906,0,5.705-0.557,8.096-1.611c0.32-0.142,0.691-0.104,0.978,0.097 c0.287,0.201,0.447,0.538,0.423,0.887c-0.059,0.857-0.087,1.646-0.087,2.414C59.408,83.857,59.409,83.929,59.409,84z"/></g><g><path fill="#eeecd9" d="M67.112,53.302c0.904,1.949,1.147,4.227,1.009,6.697c-0.056,0.992-0.863,1.777-1.855,1.831 c-2.434,0.132-5.031,0.025-7.74-0.25c-0.925-0.094-1.39-1.183-0.807-1.907c2.478-3.077,5.204-5.475,8.313-6.815 C66.446,52.679,66.921,52.891,67.112,53.302z"/><path fill="#df5f80" d="M64.466,53.638c0.723,1.051,1.163,2.44,1.163,3.963c0,1.684-0.538,3.204-1.402,4.285l-6.767-0.695 l0.197-1.436L64.466,53.638z"/><path fill="#1f212b" d="M64.107,62.387c-1.732,0-3.593-0.103-5.632-0.309c-0.614-0.063-1.144-0.457-1.383-1.028 c-0.24-0.576-0.152-1.207,0.236-1.689c2.735-3.396,5.518-5.673,8.505-6.96c0.657-0.286,1.42,0.019,1.732,0.692l0,0 c0.867,1.869,1.211,4.137,1.054,6.935c-0.069,1.245-1.07,2.234-2.328,2.303C65.585,62.367,64.858,62.387,64.107,62.387z M66.34,53.295c-0.038,0-0.075,0.007-0.111,0.022c-2.835,1.222-5.492,3.404-8.123,6.669c-0.154,0.192-0.189,0.445-0.092,0.677 c0.099,0.237,0.309,0.394,0.561,0.419c2.872,0.291,5.378,0.37,7.662,0.248c0.748-0.041,1.343-0.625,1.384-1.36 c0.147-2.63-0.167-4.743-0.963-6.458l0,0C66.595,53.377,66.467,53.295,66.34,53.295z"/><path fill="#1f212b" d="M64.227,62.386c-0.109,0-0.22-0.036-0.312-0.109c-0.216-0.172-0.251-0.487-0.079-0.703 c0.834-1.043,1.293-2.454,1.293-3.973c0-1.365-0.382-2.672-1.075-3.68c-0.156-0.228-0.099-0.539,0.129-0.695 c0.228-0.156,0.539-0.098,0.695,0.129c0.807,1.173,1.251,2.681,1.251,4.246c0,1.745-0.537,3.378-1.512,4.597 C64.519,62.322,64.374,62.386,64.227,62.386z"/><line x1="61.419" x2="61.419" y1="57.762" y2="58.989" fill="#fff"/><path fill="#1f212b" d="M61.419,59.489c-0.276,0-0.5-0.224-0.5-0.5v-1.227c0-0.276,0.224-0.5,0.5-0.5s0.5,0.224,0.5,0.5 v1.227C61.919,59.265,61.696,59.489,61.419,59.489z"/></g><g><path fill="#1f212b" d="M50,73.443c-5.122,0-10.048-0.717-14.639-2.131c-5.037-1.552-8.664-5.817-9.241-10.866 c-0.032-0.274,0.166-0.522,0.44-0.553c0.269-0.038,0.522,0.165,0.553,0.44c0.532,4.654,3.885,8.589,8.542,10.023 c4.497,1.385,9.323,2.087,14.345,2.087c4.854,0,9.533-0.658,13.908-1.955c5.089-1.51,8.639-5.754,9.042-10.813 c0.022-0.275,0.268-0.479,0.538-0.459c0.275,0.022,0.481,0.263,0.459,0.538c-0.437,5.475-4.266,10.065-9.755,11.693 C59.726,72.772,54.951,73.443,50,73.443z"/></g></svg>