<svg xmlns="http://www.w3.org/2000/svg" viewBox="0 0 100 100"><path fill="#f27c7c" d="M16.124,57.034c-1.574-2.622-2.237-6.019-0.329-8.765c1.066-1.534,2.774-2.829,2.126-5.354 c-0.703-2.737-0.221-4.749,1.495-5.271c1.149-0.35,3.209,0.008,4.512,3.348c1.007,2.58-0.126,3.702,2.102,7.464 c1.454,2.456,5.129,8.766-1.683,11.448C21.854,60.887,18.047,60.238,16.124,57.034z"/><path fill="#f5905f" d="M86.583,47.431l-2.157-0.632l-0.546-2.716c-2.369,1.498-5.278,2.397-8.441,2.397 c-2.577,0-4.986-0.597-7.074-1.624c4.174-1.528,6.897-3.989,6.897-6.774c0-1.267-0.577-2.463-1.582-3.54l-0.686-7.223 c-0.724-7.625-7.012-13.442-14.529-13.442s-13.804,5.818-14.529,13.442l-0.686,7.223c-1.004,1.077-1.582,2.274-1.582,3.54 c0,2.785,2.722,5.246,6.897,6.774c-2.088,1.027-4.497,1.624-7.074,1.624c-3.163,0-6.072-0.899-8.441-2.397l-0.546,2.716 l-2.157,0.632c1.383,5.007,6.394,8.795,12.511,9.177c-0.949,3.471-1.518,7.309-1.615,11.358c-1.298,1.861-2.047,3.955-2.047,6.178 c0,2.126,0.676,4.137,1.871,5.937C39.066,81.291,37.72,83.486,37.72,86h10.658c1.207,0,2.186-0.979,2.186-2.186v0 c0-1.356,1.365-2.301,2.623-1.794c1.618,0.652,3.403,1.016,5.281,1.016c1.879,0,3.663-0.364,5.281-1.016 c1.258-0.507,2.623,0.438,2.623,1.794v0c0,1.207,0.979,2.186,2.186,2.186h10.658c0-2.521-1.354-4.721-3.369-5.929 c1.199-1.797,1.887-3.801,1.887-5.927c0-2.223-0.748-4.317-2.047-6.178c-0.097-4.049-0.665-7.887-1.615-11.358 C80.189,56.226,85.201,52.438,86.583,47.431z"/><path fill="#f9e65c" d="M22.022,56.868c-0.59,0-1.943-0.233-2.933-1.613c-0.655-0.913-1.527-3.262-0.158-5.58 c0.853-1.443,1.824-4.036,2.139-5.823c0.02-0.115,0.704,3.132,1.955,5.508c1.138,2.161,3.316,3.973,1.771,6.026 c-0.38,0.505-1.046,1.038-1.715,1.301C22.786,56.803,22.409,56.868,22.022,56.868z"/><path fill="#1f212b" d="M18.599,54.831c-0.198,0-0.387-0.119-0.465-0.315c-0.319-0.804-0.924-2.91,0.367-5.094 c0.142-0.238,0.45-0.315,0.685-0.176c0.238,0.141,0.317,0.447,0.177,0.685c-1.027,1.738-0.629,3.388-0.299,4.216 c0.102,0.256-0.023,0.547-0.28,0.649C18.723,54.819,18.66,54.831,18.599,54.831z"/><path fill="#1f212b" d="M22.022,57.368c-0.276,0-0.5-0.224-0.5-0.5s0.224-0.5,0.5-0.5c0.321,0,0.641-0.053,0.876-0.146 c0.547-0.214,1.148-0.671,1.499-1.136c0.903-1.2,0.275-2.263-0.824-3.898c-0.343-0.509-0.696-1.036-0.99-1.594 c-0.646-1.229-1.145-2.68-1.481-3.798c-0.122,0.398-0.261,0.811-0.413,1.226c-0.097,0.259-0.381,0.392-0.643,0.296 c-0.259-0.095-0.392-0.383-0.297-0.642c0.392-1.062,0.686-2.095,0.829-2.91c0.041-0.231,0.238-0.406,0.473-0.416 c0.412-0.019,0.491,0.289,0.614,0.752c0.235,0.883,0.858,3.229,1.803,5.024c0.269,0.511,0.607,1.015,0.936,1.502 c1.017,1.513,2.17,3.228,0.793,5.058c-0.459,0.609-1.218,1.185-1.932,1.465C22.912,57.291,22.471,57.368,22.022,57.368z"/><path fill="#1f212b" d="M19.726,48.584c-0.066,0-0.134-0.013-0.198-0.041c-0.254-0.11-0.37-0.404-0.261-0.658 c0.167-0.386,0.331-0.795,0.482-1.209c0.095-0.259,0.385-0.39,0.642-0.298c0.26,0.095,0.393,0.382,0.298,0.642 c-0.159,0.433-0.329,0.859-0.504,1.263C20.103,48.472,19.919,48.584,19.726,48.584z"/><path fill="#1f212b" d="M21.997,61.332c-2.467,0-5.141-1.136-6.73-3.783l0,0c-2.07-3.452-2.18-7.134-0.292-9.851 c0.226-0.325,0.479-0.641,0.733-0.958c1.017-1.265,1.62-2.115,1.245-3.576c-0.866-3.378-0.054-5.799,2.173-6.477 c1.728-0.525,4.27,0.188,5.735,3.941c0.446,1.145,0.521,2.029,0.594,2.884c0.102,1.204,0.197,2.341,1.437,4.435 c0.979,1.653,3.273,5.525,2.121,8.885c-0.607,1.772-2.054,3.119-4.298,4.003C23.893,61.159,22.96,61.332,21.997,61.332z M16.981,56.52c1.584,2.637,4.801,3.322,7.001,2.454c1.697-0.668,2.724-1.581,3.139-2.791c0.853-2.486-1.111-5.802-1.95-7.217 c-1.473-2.488-1.599-3.974-1.709-5.286c-0.065-0.778-0.123-1.45-0.464-2.325c-0.966-2.474-2.334-3.048-3.29-2.755 c-1.602,0.488-1.03,3.236-0.817,4.066c0.644,2.504-0.613,4.069-1.623,5.326c-0.226,0.281-0.45,0.56-0.65,0.847 C14.505,51.88,16.361,55.486,16.981,56.52L16.981,56.52z"/><path fill="#1f212b" d="M58.468,41.492c-0.06,0-0.119-0.01-0.178-0.033l-0.235-0.089c-2.042-0.776-4.181-1.261-6.356-1.44 c-1.183-0.098-2.401-0.157-3.622-0.176c-1.095-0.017-2.149-0.389-3.05-1.076c-0.22-0.167-0.263-0.481-0.095-0.701 c0.168-0.221,0.483-0.261,0.7-0.094c0.729,0.556,1.58,0.857,2.46,0.871c1.243,0.02,2.484,0.08,3.688,0.179 c2.27,0.188,4.5,0.693,6.63,1.502l0.235,0.089c0.258,0.098,0.388,0.387,0.29,0.645C58.859,41.369,58.669,41.492,58.468,41.492z"/><path fill="#1f212b" d="M58.468,41.492c-0.201,0-0.392-0.123-0.468-0.323c-0.098-0.258,0.032-0.547,0.29-0.645l0.235-0.089 c2.129-0.81,4.358-1.315,6.629-1.502c1.205-0.099,2.446-0.16,3.688-0.179c0.881-0.014,1.73-0.315,2.459-0.871 c0.219-0.167,0.532-0.126,0.701,0.094c0.168,0.219,0.125,0.533-0.094,0.701c-0.9,0.687-1.955,1.059-3.051,1.076 c-1.22,0.019-2.438,0.078-3.622,0.176c-2.177,0.179-4.314,0.664-6.355,1.44l-0.235,0.089 C58.587,41.481,58.526,41.492,58.468,41.492z"/><path fill="#1f212b" d="M57.041,37.079c-0.066,0-0.133-0.013-0.198-0.041l-1.099-0.473 c-0.253-0.109-0.37-0.403-0.261-0.657c0.108-0.254,0.404-0.372,0.657-0.261l1.099,0.473c0.253,0.109,0.37,0.403,0.261,0.657 C57.419,36.966,57.234,37.079,57.041,37.079z"/><path fill="#1f212b" d="M59.895,37.079c-0.193,0-0.378-0.113-0.459-0.302c-0.109-0.253,0.008-0.547,0.261-0.657 l1.098-0.473c0.252-0.109,0.549,0.007,0.657,0.261c0.109,0.253-0.008,0.547-0.261,0.657l-1.098,0.473 C60.028,37.066,59.961,37.079,59.895,37.079z"/><path fill="#444445" d="M63.721,32.546c-0.008-0.006-0.014-0.018-0.015-0.027c-0.085-4.476,1.299-8.174,3.019-8.174 c1.722,0,3.107,3.707,3.018,8.191C68.694,33.308,64.847,33.376,63.721,32.546z"/><path fill="#444445" d="M52.933,32.546c0.008-0.006,0.014-0.018,0.015-0.027c0.085-4.476-1.299-8.174-3.019-8.174 c-1.722,0-3.107,3.707-3.018,8.191C47.96,33.308,51.806,33.376,52.933,32.546z"/><path fill="#1f212b" d="M66.711,33.643c-1.331,0-2.657-0.231-3.287-0.694c-0.128-0.095-0.218-0.271-0.218-0.43 c-0.066-3.507,0.738-6.644,2.051-7.981c0.904-0.919,2.035-0.919,2.938,0.001c1.314,1.341,2.118,4.483,2.049,8.006 c-0.003,0.156-0.078,0.301-0.204,0.393C69.401,33.408,68.054,33.643,66.711,33.643z M64.203,32.256 c1.101,0.554,4.004,0.478,5.044-0.008c0.017-3.063-0.698-5.919-1.767-7.009c-0.513-0.522-0.997-0.524-1.51-0.001 C64.901,26.328,64.186,29.189,64.203,32.256z"/><path fill="#1f212b" d="M49.942,33.644c-1.343,0-2.689-0.235-3.328-0.705c-0.126-0.092-0.201-0.237-0.204-0.393 c-0.069-3.524,0.735-6.667,2.05-8.007c0.902-0.921,2.035-0.92,2.938,0c1.312,1.337,2.116,4.474,2.05,7.99 c-0.003,0.156-0.093,0.328-0.218,0.42l0,0C52.601,33.412,51.273,33.644,49.942,33.644z M47.406,32.249 c1.041,0.486,3.943,0.562,5.044,0.007c0.017-3.072-0.698-5.929-1.767-7.018c-0.512-0.522-0.998-0.523-1.51,0 C48.105,26.328,47.391,29.184,47.406,32.249z"/><ellipse cx="50.927" cy="27.708" fill="#eeecd9" rx="1.118" ry="2.47"/><path fill="#1f212b" d="M50.927,30.678c-1.063,0-1.618-1.494-1.618-2.97c0-1.476,0.556-2.97,1.618-2.97 s1.619,1.494,1.619,2.97C52.546,29.184,51.989,30.678,50.927,30.678z M50.927,25.738c-0.154,0-0.618,0.699-0.618,1.97 c0,1.271,0.464,1.97,0.618,1.97s0.619-0.699,0.619-1.97C51.546,26.437,51.081,25.738,50.927,25.738z"/><ellipse cx="65.606" cy="27.708" fill="#eeecd9" rx="1.118" ry="2.47"/><path fill="#1f212b" d="M65.606,30.678c-1.063,0-1.618-1.494-1.618-2.97c0-1.476,0.556-2.97,1.618-2.97 s1.618,1.494,1.618,2.97C67.225,29.184,66.669,30.678,65.606,30.678z M65.606,25.738c-0.154,0-0.618,0.699-0.618,1.97 c0,1.271,0.464,1.97,0.618,1.97s0.618-0.699,0.618-1.97C66.225,26.437,65.761,25.738,65.606,25.738z"/><path fill="#fefdef" d="M71.309,70.686c0,6.567-5.749,11.89-12.842,11.89c-7.092,0-12.842-5.323-12.842-11.89 s3.877-21.49,12.842-21.49C67.287,49.196,71.309,64.119,71.309,70.686z"/><path fill="#1f212b" d="M58.446,46.534c-3.788,0-7.477-0.66-10.386-1.857c-0.255-0.105-0.377-0.397-0.271-0.653 c0.104-0.255,0.397-0.375,0.652-0.272c2.791,1.149,6.344,1.782,10.005,1.782c3.651,0,7.197-0.63,9.985-1.773 c0.253-0.104,0.547,0.017,0.652,0.272c0.104,0.255-0.018,0.548-0.273,0.652C65.906,45.878,62.225,46.534,58.446,46.534z"/><path fill="#f5905f" d="M40.156,68.699c-7.404-0.868-13.608-6.579-16.332-14.427c-0.615-1.771-3.25-1.389-3.257,0.486 c0,0.034,0,0.068,0,0.102c0,12.29,8.314,22.374,18.902,23.393"/><path fill="#1f212b" d="M39.373,79.248c-11.106-1.069-19.807-11.782-19.807-24.389v-0.102 c0.005-1.312,0.91-2.376,2.203-2.591c1.32-0.223,2.559,0.51,2.998,1.778c2.667,7.68,8.607,12.953,15.504,13.762l-0.232,1.986 c-7.665-0.899-14.24-6.682-17.16-15.092c-0.181-0.519-0.643-0.483-0.781-0.461c-0.197,0.033-0.529,0.158-0.531,0.622v0.098 c0,11.588,7.905,21.426,17.998,22.397L39.373,79.248z"/><path fill="#1f212b" d="M58.468,83.076c-7.356,0-13.342-5.558-13.342-12.39c0-6.472,3.839-21.99,13.342-21.99 c3.081,0,5.819,1.675,8.14,4.978c0.159,0.226,0.104,0.538-0.122,0.697c-0.225,0.159-0.537,0.104-0.696-0.122 c-2.122-3.021-4.585-4.553-7.321-4.553c-8.671,0-12.342,15.016-12.342,20.99c0,6.281,5.536,11.39,12.342,11.39 c6.805,0,12.341-5.109,12.341-11.39c0-1.471-0.209-3.331-0.589-5.237c-0.054-0.271,0.122-0.534,0.393-0.588 c0.266-0.055,0.534,0.121,0.588,0.393c0.393,1.968,0.608,3.897,0.608,5.432C71.809,77.518,65.824,83.076,58.468,83.076z"/><path fill="#1f212b" d="M70.082,63.2c-0.22,0-0.421-0.146-0.482-0.367c-0.058-0.21-0.117-0.42-0.179-0.631 c-0.078-0.265,0.074-0.543,0.339-0.621c0.267-0.078,0.543,0.075,0.62,0.339c0.063,0.216,0.125,0.432,0.185,0.646 c0.073,0.266-0.083,0.542-0.35,0.615C70.171,63.194,70.126,63.2,70.082,63.2z"/><path fill="#1f212b" d="M69.411,61.022c-0.208,0-0.402-0.13-0.473-0.338c-0.508-1.482-1.094-2.862-1.741-4.103 c-0.128-0.245-0.033-0.547,0.212-0.675c0.244-0.128,0.548-0.033,0.675,0.212c0.671,1.286,1.276,2.712,1.8,4.242 c0.09,0.261-0.05,0.546-0.311,0.635C69.52,61.014,69.465,61.022,69.411,61.022z"/><g><path fill="#eeecd9" d="M42.595,86c0-1.637,0.866-2.964,1.933-2.964c1.068,0,1.933,1.327,1.933,2.964"/><path fill="#1f212b" d="M46.462,86.5c-0.276,0-0.5-0.224-0.5-0.5c0-1.335-0.656-2.464-1.434-2.464S43.095,84.665,43.095,86 c0,0.276-0.224,0.5-0.5,0.5s-0.5-0.224-0.5-0.5c0-1.942,1.069-3.464,2.434-3.464s2.434,1.521,2.434,3.464 C46.962,86.276,46.738,86.5,46.462,86.5z"/></g><g><path fill="#eeecd9" d="M38.643,86c0-1.637,0.866-2.964,1.933-2.964c1.068,0,1.933,1.327,1.933,2.964"/><path fill="#1f212b" d="M42.51,86.5c-0.276,0-0.5-0.224-0.5-0.5c0-1.335-0.656-2.464-1.434-2.464 c-0.776,0-1.433,1.128-1.433,2.464c0,0.276-0.224,0.5-0.5,0.5s-0.5-0.224-0.5-0.5c0-1.942,1.068-3.464,2.433-3.464 S43.01,84.058,43.01,86C43.01,86.276,42.786,86.5,42.51,86.5z"/></g><g><path fill="#eeecd9" d="M75.199,86c0-1.637,0.866-2.964,1.933-2.964c1.068,0,1.933,1.327,1.933,2.964"/><path fill="#1f212b" d="M79.065,86.5c-0.276,0-0.5-0.224-0.5-0.5c0-1.335-0.656-2.464-1.433-2.464 c-0.777,0-1.434,1.128-1.434,2.464c0,0.276-0.224,0.5-0.5,0.5s-0.5-0.224-0.5-0.5c0-1.942,1.069-3.464,2.434-3.464 s2.433,1.521,2.433,3.464C79.565,86.276,79.342,86.5,79.065,86.5z"/></g><g><path fill="#eeecd9" d="M71.247,86c0-1.637,0.866-2.964,1.933-2.964s1.933,1.327,1.933,2.964"/><path fill="#1f212b" d="M75.113,86.5c-0.276,0-0.5-0.224-0.5-0.5c0-1.335-0.656-2.464-1.433-2.464 c-0.777,0-1.434,1.128-1.434,2.464c0,0.276-0.224,0.5-0.5,0.5s-0.5-0.224-0.5-0.5c0-1.942,1.069-3.464,2.434-3.464 s2.433,1.521,2.433,3.464C75.613,86.276,75.39,86.5,75.113,86.5z"/></g><g><path fill="#1f212b" d="M79.216,87H68.558c-1.757,0-3.187-1.429-3.187-3.186c0-0.316-0.15-0.599-0.412-0.775 c-0.254-0.171-0.558-0.205-0.836-0.091c-3.591,1.445-7.726,1.444-11.311,0c-0.277-0.113-0.583-0.08-0.837,0.091 c-0.262,0.177-0.412,0.459-0.412,0.775c0,1.757-1.43,3.186-3.187,3.186H37.72c-0.553,0-1-0.448-1-1 c0-2.455,1.107-4.708,3.006-6.203c-1.012-1.793-1.524-3.691-1.524-5.653c0-2.267,0.691-4.452,2.055-6.498 c0.104-3.52,0.557-6.929,1.347-10.157c-5.955-0.79-10.785-4.614-12.215-9.792c-0.146-0.526,0.158-1.072,0.683-1.226l1.576-0.462 l0.427-2.124c0.065-0.322,0.284-0.593,0.587-0.722c0.302-0.128,0.65-0.101,0.928,0.074c2.32,1.467,5.055,2.242,7.907,2.242 c1.522,0,3.035-0.228,4.468-0.666c-3.393-1.739-5.291-4.12-5.291-6.732c0-1.388,0.544-2.72,1.616-3.963l0.655-6.896 c0.777-8.18,7.451-14.348,15.524-14.348c8.072,0,14.746,6.168,15.523,14.348l0.655,6.896c1.073,1.243,1.617,2.575,1.617,3.963 c0,2.612-1.898,4.993-5.292,6.732c1.434,0.438,2.946,0.666,4.469,0.666c2.853,0,5.586-0.775,7.906-2.242 c0.279-0.175,0.627-0.203,0.928-0.074c0.303,0.129,0.521,0.399,0.587,0.722l0.427,2.124l1.576,0.462 c0.524,0.153,0.828,0.699,0.683,1.226c-1.429,5.178-6.259,9.002-12.214,9.792c0.79,3.226,1.241,6.635,1.346,10.156 c1.363,2.045,2.055,4.23,2.055,6.499c0,1.951-0.517,3.845-1.538,5.643c1.908,1.494,3.021,3.751,3.021,6.213 C80.216,86.552,79.769,87,79.216,87z M64.455,80.883c0.569,0,1.135,0.168,1.623,0.498c0.81,0.546,1.293,1.456,1.293,2.433 c0,0.654,0.532,1.186,1.187,1.186h9.574c-0.285-1.687-1.287-3.165-2.8-4.071c-0.235-0.141-0.402-0.372-0.462-0.639 c-0.061-0.267-0.008-0.547,0.144-0.774c1.142-1.709,1.72-3.517,1.72-5.372c0-1.945-0.628-3.831-1.867-5.605 c-0.112-0.161-0.175-0.352-0.18-0.548c-0.093-3.885-0.624-7.626-1.579-11.119c-0.079-0.29-0.023-0.601,0.151-0.845 s0.451-0.398,0.751-0.417c5.266-0.328,9.677-3.301,11.301-7.51l-1.165-0.342c-0.356-0.104-0.626-0.398-0.699-0.762l-0.272-1.358 c-2.351,1.208-4.996,1.842-7.733,1.842c-2.62,0-5.219-0.597-7.516-1.727c-0.359-0.177-0.578-0.551-0.558-0.951 c0.021-0.4,0.279-0.748,0.655-0.886c3.908-1.43,6.241-3.611,6.241-5.835c0-0.962-0.441-1.924-1.313-2.858 c-0.15-0.161-0.243-0.368-0.264-0.587l-0.686-7.223c-0.68-7.147-6.497-12.537-13.533-12.537s-12.854,5.39-13.534,12.537 l-0.686,7.223c-0.021,0.219-0.113,0.426-0.264,0.587c-0.871,0.935-1.313,1.896-1.313,2.859c0,2.224,2.333,4.405,6.24,5.835 c0.376,0.138,0.634,0.486,0.655,0.886c0.021,0.4-0.198,0.774-0.558,0.951c-2.297,1.129-4.896,1.727-7.515,1.727 c-2.737,0-5.384-0.633-7.734-1.842l-0.272,1.358c-0.073,0.364-0.343,0.658-0.699,0.762L31.624,48.1 c1.625,4.209,6.037,7.182,11.302,7.51c0.3,0.019,0.576,0.172,0.751,0.417s0.23,0.555,0.151,0.845 c-0.956,3.495-1.487,7.236-1.58,11.119c-0.005,0.196-0.067,0.387-0.18,0.548c-1.239,1.776-1.867,3.662-1.867,5.605 c0,1.87,0.573,3.681,1.704,5.383c0.15,0.227,0.202,0.506,0.143,0.772s-0.226,0.497-0.459,0.637 c-1.504,0.908-2.501,2.383-2.785,4.063h9.573c0.654,0,1.187-0.532,1.187-1.186c0-0.977,0.483-1.886,1.293-2.433 c0.801-0.54,1.812-0.647,2.704-0.289c3.106,1.252,6.703,1.253,9.815,0C63.724,80.952,64.09,80.883,64.455,80.883z"/></g></svg>