<svg xmlns="http://www.w3.org/2000/svg" viewBox="0 0 100 100"><ellipse cx="44.247" cy="58.256" fill="#d3dff1" rx="24.043" ry="24.319"/><path fill="#78ccd3" d="M68.372,56.5l4.277-2.17l5.266-1.404l6.064,2.202l2.936,4.021l0.638,3.894l-0.606,3.989 l-3.415,4.053l-4.5,0.16l-2.936-0.032l-0.734-1.596L73,71.596c0,0-2.489,1.755-2.745,2.011s-3.894,1.053-3.894,1.053l-1.34-0.894 l-0.319-1.915l2.777-5.011l0.926-5.33L68.372,56.5z"/><ellipse cx="44.247" cy="60.792" fill="#fef6aa" rx="19.255" ry="21.783"/><path fill="#78ccd3" d="M18.096,41.598l-2.031-2.007l-0.897,2.539l-2.047,0.427l0.498,2.031l-1.905,1.904l2.686,0.961 c2.599,3.232,6.558,6.388,8.544,7.64c1.825,1.151,4.656-0.059,6.323-2.702c1.667-2.643,1.538-5.719-0.288-6.87 C26.817,44.156,22.045,42.523,18.096,41.598z"/><path fill="#78ccd3" d="M70.397,41.598l2.031-2.007l0.897,2.539l2.047,0.427l-0.498,2.031l1.905,1.904l-2.686,0.961 c-2.599,3.232-6.558,6.388-8.544,7.64c-1.825,1.151-4.656-0.059-6.323-2.702c-1.667-2.643-1.538-5.719,0.288-6.87 C61.677,44.156,66.448,42.523,70.397,41.598z"/><path fill="#78ccd3" d="M35.314,76.364c0.448-3.963-4.741-6.748-8.256-6.442c-0.995,0.087-1.814,0.759-2.264,1.649 c-1.504,2.973-1.999,6.048-2.041,9.591c-2.336,0.956-3.899,2.409-3.899,4.765v1.138h11.618c2.132,0,3.86-1.728,3.86-3.86V82.82 C34.477,79.786,34.612,79.205,35.314,76.364z"/><path fill="#78ccd3" d="M53.179,76.364c-0.448-3.963,4.741-6.748,8.256-6.442c0.995,0.087,1.814,0.759,2.264,1.649 c1.504,2.973,1.999,6.048,2.041,9.591c2.336,0.956,3.899,2.409,3.899,4.765v1.138H58.021c-2.132,0-3.86-1.728-3.86-3.86V82.82 C54.016,79.786,53.881,79.205,53.179,76.364z"/><path fill="#78ccd3" d="M25.906,31.304c0.029,5.837,3.876,11.041,9.418,12.875c2.752,0.911,5.765,1.414,8.922,1.414 c3.158,0,6.17-0.503,8.922-1.414c5.542-1.835,9.389-7.038,9.418-12.875c0-0.034,0-0.068,0-0.101 c0-10.555-8.211-19.112-18.34-19.112c-10.129,0-18.34,8.557-18.34,19.112C25.906,31.236,25.906,31.27,25.906,31.304z"/><path fill="#1f212b" d="M65.389,75.769c-0.107,0-0.216-0.001-0.323-0.003c-0.553-0.011-0.991-0.468-0.98-1.02 s0.498-0.982,1.02-0.98c3.907,0.069,7.526-1.43,9.74-4.032c0.357-0.419,0.989-0.472,1.409-0.114 c0.421,0.358,0.472,0.989,0.114,1.41C73.833,74.011,69.747,75.769,65.389,75.769z"/><path fill="#1f212b" d="M75.8,70.367c-0.089,0-0.178-0.023-0.259-0.072c-0.828-0.5-1.562-1.135-2.178-1.887 c-1.452-1.802-1.542-4.071-0.238-5.925c1.164-1.653,3.223-2.377,4.997-1.758c1.08,0.375,1.875,1.127,2.182,2.061 c0.216,0.656,0.291,1.704-0.576,2.966c-0.156,0.228-0.466,0.286-0.695,0.129c-0.228-0.156-0.285-0.467-0.129-0.695 c0.503-0.732,0.658-1.454,0.45-2.088c-0.208-0.635-0.777-1.156-1.56-1.428c-1.359-0.47-2.941,0.099-3.851,1.389 c-1.053,1.497-0.979,3.261,0.196,4.719c0.541,0.66,1.188,1.22,1.919,1.661c0.236,0.143,0.312,0.45,0.169,0.687 C76.134,70.281,75.969,70.367,75.8,70.367z"/><path fill="#1f212b" d="M79.908,72.513c-0.225,0-0.45-0.008-0.678-0.024c-1.493-0.107-2.896-0.552-4.171-1.322 c-0.473-0.286-0.624-0.9-0.338-1.373c0.284-0.473,0.896-0.626,1.373-0.339c1,0.604,2.104,0.954,3.279,1.039 c4.018,0.29,7.47-2.726,7.898-6.863c0.335-3.23-1.714-6.815-4.872-8.524c-2.285-1.237-7.073-2.536-13.468,2.653 c-0.428,0.349-1.06,0.282-1.406-0.146c-0.348-0.429-0.282-1.059,0.146-1.407c5.329-4.326,11.043-5.368,15.68-2.859 c3.9,2.111,6.33,6.424,5.91,10.489C88.745,68.822,84.701,72.513,79.908,72.513z"/><path fill="#1f212b" d="M30.031,46.91l-0.797-0.604c1.093-1.439,2.346-2.719,3.725-3.804l0.619,0.786 C32.266,44.32,31.072,45.539,30.031,46.91z"/><path fill="#1f212b" d="M26.327,70.185c-1.219-2.952-1.836-6.112-1.836-9.393c0-1.914,0.216-3.816,0.642-5.654l0.975,0.226 c-0.409,1.764-0.616,3.59-0.616,5.428c0,3.149,0.592,6.181,1.76,9.011L26.327,70.185z"/><path fill="#1f212b" d="M62.183,70.146l-0.926-0.38c1.158-2.82,1.745-5.839,1.745-8.974c0-1.873-0.215-3.731-0.638-5.523 l0.973-0.229c0.441,1.867,0.665,3.803,0.665,5.753C64.002,64.058,63.39,67.205,62.183,70.146z"/><path fill="#1f212b" d="M58.438,46.878c-1.066-1.399-2.289-2.637-3.635-3.679l0.611-0.791 c1.415,1.095,2.699,2.395,3.818,3.863L58.438,46.878z"/><path fill="#1f212b" d="M44.247,66.023c-4.007,0-7.911-0.536-11.603-1.594l0.275-0.961 c3.603,1.032,7.413,1.555,11.327,1.555c4.011,0,7.907-0.548,11.582-1.629l0.283,0.959C52.345,65.461,48.354,66.023,44.247,66.023z"/><path fill="#1f212b" d="M44.247,52.598c-4.984,0-9.752-0.816-14.168-2.427l0.342-0.939c4.307,1.57,8.959,2.367,13.826,2.367 c4.868,0,9.521-0.797,13.829-2.368l0.342,0.939C54.001,51.781,49.232,52.598,44.247,52.598z"/><path fill="#1f212b" d="M44.247,75.947c-0.276,0-0.5-0.224-0.5-0.5V52.128c0-0.276,0.224-0.5,0.5-0.5s0.5,0.224,0.5,0.5 v23.319C44.747,75.723,44.523,75.947,44.247,75.947z"/><path fill="#1f212b" d="M34.555,80.647c-0.185,0-0.362-0.103-0.449-0.28c-0.121-0.248-0.019-0.548,0.229-0.669l9.692-4.739 c0.139-0.067,0.301-0.067,0.439,0l9.555,4.672c0.248,0.122,0.351,0.421,0.229,0.669c-0.122,0.249-0.423,0.351-0.669,0.229 l-9.335-4.565l-9.473,4.631C34.704,80.631,34.629,80.647,34.555,80.647z"/><path fill="#1f212b" d="M28.67,70.404c-0.099,0-0.197-0.029-0.284-0.088c-0.227-0.157-0.284-0.468-0.128-0.695l3.918-5.683 l-6.002-8.749c-0.156-0.228-0.099-0.539,0.129-0.695c0.229-0.156,0.54-0.099,0.695,0.129l6.196,9.032 c0.117,0.17,0.117,0.396,0,0.566l-4.112,5.966C28.984,70.329,28.828,70.404,28.67,70.404z"/><path fill="#1f212b" d="M59.702,70.245c-0.159,0-0.315-0.076-0.412-0.217l-3.991-5.807 c-0.118-0.171-0.117-0.398,0.002-0.568l6.235-8.975c0.156-0.228,0.468-0.284,0.695-0.125c0.227,0.158,0.283,0.469,0.125,0.696 l-6.038,8.691l3.796,5.522c0.156,0.228,0.099,0.539-0.129,0.695C59.898,70.216,59.8,70.245,59.702,70.245z"/><path fill="#444445" d="M34.119,21.772c-1.728,0-3.129,2.897-3.129,6.47c0,0.533,0.032,1.049,0.092,1.544 c0.098,0.809,0.663,1.5,1.452,1.703c0.507,0.131,1.037,0.201,1.585,0.201c0.548,0,1.078-0.07,1.585-0.201 c0.789-0.204,1.355-0.894,1.452-1.703c0.06-0.494,0.092-1.011,0.092-1.544C37.248,24.669,35.847,21.772,34.119,21.772z"/><path fill="#1f212b" d="M34.119,32.19c-0.577,0-1.152-0.073-1.71-0.217c-0.967-0.25-1.7-1.104-1.823-2.127 c-0.063-0.526-0.096-1.065-0.096-1.604c0-3.909,1.594-6.97,3.629-6.97s3.629,3.062,3.629,6.97c0,0.539-0.032,1.078-0.096,1.604 c-0.123,1.023-0.856,1.878-1.823,2.128C35.271,32.117,34.696,32.19,34.119,32.19z M34.119,22.272c-1.243,0-2.629,2.452-2.629,5.97 c0,0.499,0.029,0.998,0.088,1.484c0.075,0.617,0.509,1.131,1.081,1.278c0.953,0.246,1.967,0.246,2.92,0 c0.572-0.148,1.006-0.662,1.081-1.279c0.059-0.486,0.088-0.985,0.088-1.484C36.748,24.724,35.362,22.272,34.119,22.272z"/><path fill="#444445" d="M54.374,21.772c-1.728,0-3.129,2.897-3.129,6.47c0,0.533,0.032,1.049,0.092,1.544 c0.098,0.809,0.663,1.5,1.452,1.703c0.507,0.131,1.037,0.201,1.585,0.201c0.548,0,1.078-0.07,1.585-0.201 c0.789-0.204,1.355-0.894,1.452-1.703c0.06-0.494,0.092-1.011,0.092-1.544C57.503,24.669,56.102,21.772,54.374,21.772z"/><path fill="#1f212b" d="M54.374,32.19c-0.577,0-1.152-0.073-1.71-0.217c-0.967-0.25-1.7-1.104-1.823-2.127 c-0.063-0.526-0.096-1.065-0.096-1.604c0-3.909,1.594-6.97,3.629-6.97s3.629,3.062,3.629,6.97c0,0.539-0.032,1.078-0.096,1.604 c-0.122,1.023-0.854,1.878-1.823,2.128C55.526,32.117,54.951,32.19,54.374,32.19z M54.374,22.272c-1.243,0-2.629,2.452-2.629,5.97 c0,0.499,0.029,0.998,0.088,1.484c0.075,0.617,0.509,1.131,1.081,1.278c0.953,0.246,1.967,0.246,2.92,0 c0.572-0.148,1.007-0.662,1.081-1.279c0.059-0.486,0.088-0.985,0.088-1.484C57.003,24.724,55.617,22.272,54.374,22.272z"/><path fill="#1f212b" d="M41.611,34.596c-0.128,0-0.256-0.049-0.354-0.146l-0.484-0.484c-0.195-0.195-0.195-0.512,0-0.707 s0.512-0.195,0.707,0l0.484,0.484c0.195,0.195,0.195,0.512,0,0.707C41.867,34.547,41.739,34.596,41.611,34.596z"/><path fill="#1f212b" d="M46.882,34.596c-0.128,0-0.256-0.049-0.354-0.146c-0.195-0.195-0.195-0.512,0-0.707l0.484-0.484 c0.195-0.195,0.512-0.195,0.707,0s0.195,0.512,0,0.707l-0.484,0.484C47.138,34.547,47.01,34.596,46.882,34.596z"/><path fill="#1f212b" d="M24.871,55.763c-0.609,0-1.19-0.152-1.699-0.473c-0.727-0.459-1.65-1.131-2.601-1.893 c-0.216-0.173-0.25-0.487-0.077-0.703c0.173-0.215,0.489-0.248,0.702-0.077c0.922,0.739,1.813,1.388,2.509,1.828 c1.453,0.915,3.761-0.132,5.149-2.335c0.69-1.095,1.045-2.302,0.998-3.399c-0.043-1.029-0.438-1.83-1.11-2.253 c-1.012-0.638-2.763-1.395-4.929-2.132c-0.262-0.089-0.401-0.373-0.313-0.634c0.09-0.262,0.373-0.402,0.635-0.312 c2.238,0.761,4.063,1.554,5.14,2.232c0.959,0.604,1.519,1.69,1.576,3.057c0.056,1.298-0.354,2.71-1.151,3.975 C28.465,54.602,26.557,55.763,24.871,55.763z"/><path fill="#1f212b" d="M33.922,81.949c-0.008,0-0.016,0-0.023,0c-0.276-0.013-0.489-0.248-0.476-0.523 c0.129-2.717,0.253-3.288,0.891-5.867c0.142-1.286-0.569-2.332-1.192-2.971c-1.386-1.421-3.757-2.332-5.659-2.169 c-0.663,0.058-1.27,0.507-1.621,1.203c-0.163,0.321-0.312,0.644-0.448,0.969c-0.106,0.254-0.399,0.376-0.654,0.268 c-0.255-0.106-0.375-0.399-0.268-0.654c0.145-0.346,0.305-0.691,0.478-1.034c0.51-1.006,1.417-1.659,2.427-1.747 c2.206-0.191,4.859,0.823,6.462,2.467c1.11,1.14,1.614,2.469,1.459,3.845c-0.642,2.61-0.75,3.108-0.875,5.738 C34.408,81.74,34.188,81.949,33.922,81.949z"/><path fill="#1f212b" d="M63.608,55.737c-1.688,0-3.591-1.153-4.82-3.103c-1.678-2.663-1.475-5.817,0.453-7.033 c1.075-0.679,2.902-1.476,5.145-2.246c0.261-0.09,0.545,0.05,0.635,0.311s-0.049,0.545-0.311,0.635 c-2.171,0.745-3.923,1.507-4.936,2.145c-1.461,0.921-1.524,3.458-0.141,5.654c1.385,2.195,3.699,3.235,5.162,2.311 c0.729-0.459,1.667-1.145,2.642-1.93c0.213-0.173,0.529-0.141,0.703,0.076c0.173,0.215,0.139,0.53-0.076,0.703 c-1.003,0.809-1.975,1.518-2.735,1.998C64.813,55.583,64.225,55.737,63.608,55.737z"/><g><path fill="#1f212b" d="M44.308,38.88c-0.356,0-0.713-0.073-1.046-0.219l-1.338-0.589l-4.222-0.115 c-2.235-0.061-4.438-0.689-6.367-1.817c-0.238-0.139-0.319-0.445-0.18-0.684c0.139-0.238,0.445-0.319,0.684-0.179 c1.786,1.043,3.822,1.625,5.891,1.681l4.319,0.118c0.064,0.002,0.129,0.016,0.188,0.042l1.428,0.628 c0.416,0.183,0.892,0.18,1.304-0.008l1.396-0.634c0.062-0.028,0.128-0.043,0.194-0.045l4.376-0.11 c2.051-0.051,4.079-0.613,5.864-1.623c0.236-0.136,0.544-0.053,0.682,0.189c0.136,0.24,0.051,0.545-0.189,0.681 c-1.928,1.091-4.116,1.697-6.331,1.753l-4.274,0.107l-1.304,0.592C45.041,38.803,44.675,38.88,44.308,38.88z"/></g><g><ellipse cx="35.108" cy="24.921" fill="#d3dff1" rx="1.404" ry="1.967"/><path fill="#1f212b" d="M35.108,27.388c-1.067,0-1.904-1.084-1.904-2.467s0.837-2.467,1.904-2.467s1.904,1.084,1.904,2.467 S36.176,27.388,35.108,27.388z M35.108,23.454c-0.481,0-0.904,0.686-0.904,1.467s0.423,1.467,0.904,1.467s0.904-0.686,0.904-1.467 S35.59,23.454,35.108,23.454z"/><g><ellipse cx="53.385" cy="24.751" fill="#d3dff1" rx="1.404" ry="1.967"/><path fill="#1f212b" d="M53.385,27.218c-1.067,0-1.904-1.084-1.904-2.467s0.837-2.467,1.904-2.467s1.904,1.084,1.904,2.467 S54.452,27.218,53.385,27.218z M53.385,23.283c-0.481,0-0.904,0.686-0.904,1.467s0.423,1.467,0.904,1.467s0.904-0.686,0.904-1.467 S53.866,23.283,53.385,23.283z"/></g></g><g><path fill="#1f212b" d="M69.64,88.066H58.021c-2.68,0-4.859-2.18-4.859-4.86V82.82c-0.016-0.318-0.031-0.611-0.048-0.884 c-5.668,2.178-12.064,2.177-17.732,0c-0.017,0.283-0.033,0.591-0.049,0.931l0.001,0.339c0,2.68-2.181,4.86-4.86,4.86H18.854 c-0.553,0-1-0.448-1-1v-1.138c0-2.37,1.315-4.191,3.912-5.422c0.094-3.259,0.602-5.849,1.62-8.249 c-2.737-4.158-4.182-8.987-4.182-14.001c0-1.445,0.129-2.915,0.383-4.379c-1.35-1.083-3.821-3.191-5.785-5.578l-2.424-0.867 c-0.322-0.115-0.563-0.388-0.639-0.722s0.026-0.684,0.269-0.926l1.506-1.506l-0.364-1.483c-0.064-0.264-0.019-0.542,0.126-0.771 s0.376-0.391,0.642-0.446l1.495-0.312l0.709-2.008c0.114-0.323,0.386-0.565,0.719-0.642c0.337-0.078,0.685,0.023,0.927,0.263 l1.833,1.81c1.991,0.478,4.147,1.121,6.06,1.805c0.864-1.097,1.81-2.116,2.823-3.043c-1.652-2.408-2.562-5.265-2.576-8.143v-0.106 c0-11.09,8.676-20.112,19.341-20.112c10.664,0,19.34,9.022,19.34,20.112v0.102c-0.015,2.882-0.924,5.74-2.576,8.148 c1.014,0.927,1.959,1.946,2.823,3.043c1.912-0.684,4.068-1.327,6.06-1.805l1.833-1.81c0.242-0.24,0.589-0.341,0.927-0.263 c0.333,0.077,0.604,0.319,0.719,0.642l0.709,2.008l1.495,0.312c0.266,0.055,0.497,0.216,0.642,0.446s0.19,0.508,0.126,0.771 l-0.364,1.483l1.506,1.506c0.242,0.242,0.344,0.592,0.269,0.926s-0.316,0.607-0.639,0.722l-2.424,0.867 c-1.966,2.389-4.436,4.496-5.785,5.578c0.254,1.464,0.383,2.935,0.383,4.379c0,5.015-1.444,9.843-4.182,14.001 c1.018,2.397,1.526,4.987,1.62,8.249c2.597,1.231,3.912,3.053,3.912,5.422v1.138C70.64,87.619,70.192,88.066,69.64,88.066z M54.003,79.482c0.173,0,0.346,0.045,0.499,0.134c0.278,0.16,0.463,0.445,0.496,0.764c0.065,0.644,0.114,1.385,0.162,2.393 l0.001,0.434c0,1.577,1.282,2.86,2.859,2.86H68.64v-0.138c0-1.072-0.34-2.636-3.277-3.839c-0.372-0.152-0.616-0.512-0.621-0.913 c-0.042-3.518-0.561-6.17-1.68-8.601c-0.147-0.321-0.115-0.696,0.085-0.986c2.71-3.926,4.143-8.537,4.143-13.333 c0-1.514-0.153-3.06-0.457-4.596c-0.073-0.371,0.069-0.75,0.367-0.982c2.392-1.861,4.62-3.994,6.113-5.852 c0.115-0.144,0.269-0.253,0.442-0.315l1.199-0.429l-0.787-0.787c-0.247-0.247-0.348-0.605-0.265-0.945l0.252-1.025l-1.033-0.215 c-0.342-0.071-0.622-0.316-0.739-0.646L72.01,41.41l-0.911,0.899c-0.131,0.129-0.295,0.22-0.474,0.262 c-2.23,0.523-4.705,1.271-6.787,2.052c-0.42,0.156-0.89,0.017-1.154-0.341c-1.082-1.458-2.315-2.777-3.667-3.921 c-0.41-0.348-0.473-0.958-0.14-1.381c1.733-2.208,2.696-4.936,2.71-7.681v-0.097c0-9.987-7.778-18.112-17.34-18.112 s-17.341,8.125-17.341,18.112v0.102c0.014,2.741,0.977,5.469,2.71,7.676c0.333,0.423,0.271,1.033-0.14,1.381 c-1.352,1.144-2.585,2.463-3.667,3.921c-0.265,0.358-0.734,0.498-1.154,0.341c-2.082-0.781-4.557-1.529-6.787-2.052 c-0.179-0.042-0.343-0.133-0.474-0.262l-0.911-0.899l-0.372,1.054c-0.117,0.33-0.397,0.575-0.739,0.646l-1.033,0.215l0.252,1.025 c0.083,0.34-0.018,0.698-0.265,0.945l-0.787,0.787l1.199,0.429c0.174,0.062,0.327,0.171,0.442,0.315 c1.491,1.855,3.72,3.989,6.113,5.852c0.298,0.232,0.439,0.612,0.367,0.982c-0.304,1.536-0.457,3.083-0.457,4.596 c0,4.796,1.433,9.406,4.143,13.333c0.2,0.291,0.232,0.665,0.085,0.986c-1.119,2.434-1.638,5.086-1.679,8.601 c-0.005,0.402-0.249,0.762-0.621,0.914c-2.938,1.203-3.278,2.767-3.278,3.839v0.138h10.619c1.577,0,2.86-1.283,2.86-2.86V82.82 c0.049-1.055,0.097-1.796,0.162-2.44c0.033-0.319,0.218-0.604,0.496-0.764c0.276-0.161,0.616-0.178,0.909-0.046 c2.959,1.331,6.104,2.005,9.347,2.005s6.387-0.675,9.346-2.005C53.724,79.511,53.863,79.482,54.003,79.482z"/></g><g><path fill="#1f212b" d="M44.247,45.67c-3.063,0-6.041-0.472-8.854-1.404c-3.187-1.055-5.888-3.232-7.606-6.133l0.861-0.51 c1.595,2.692,4.102,4.714,7.06,5.693c5.423,1.796,11.653,1.797,17.08,0c2.721-0.901,5.099-2.718,6.696-5.116l0.832,0.555 c-1.721,2.583-4.282,4.54-7.214,5.51C50.287,45.198,47.308,45.67,44.247,45.67z"/></g><g><path fill="#1f212b" d="M54.546,81.949c-0.266,0-0.486-0.208-0.499-0.476c-0.129-2.699-0.255-3.212-0.863-5.675 c-0.167-1.439,0.337-2.769,1.447-3.909c1.602-1.645,4.265-2.658,6.461-2.467c1.011,0.088,1.918,0.741,2.428,1.747 c0.173,0.343,0.333,0.688,0.478,1.034c0.107,0.255-0.013,0.548-0.268,0.654c-0.255,0.11-0.548-0.013-0.654-0.268 c-0.137-0.325-0.285-0.648-0.448-0.969c-0.352-0.695-0.958-1.144-1.622-1.202c-1.892-0.164-4.273,0.749-5.658,2.169 c-0.623,0.64-1.334,1.686-1.181,3.035c0.626,2.52,0.75,3.092,0.879,5.803c0.014,0.276-0.199,0.51-0.476,0.523 C54.562,81.949,54.554,81.949,54.546,81.949z"/></g></svg>